<svg height="24" viewBox="0 0 224 24" width="224" xmlns="http://www.w3.org/2000/svg"><g fill="#fff"><path d="m87.28.5434a2.1991 2.1991 0 0 0 -2.5132 2.3621 2.5142 2.5142 0 0 0 5.0269 0 2.2127 2.2127 0 0 0 -2.5137-2.3621zm122.457 13.1822c.279-2.4516 1.3655-3.4755 3.5686-3.4755 2.2338 0 3.2891.9 3.3509 3.4755zm10.8293 1.2409c0-4.6854-2.9476-7.6955-7.2921-7.6955-4.5 0-7.6329 3.2271-7.6329 8.006 0 4.7164 3.1024 7.82 7.757 7.82 3.4131 0 5.8033-1.3344 6.8268-3.9719l-3.4137-1.2413a3.06 3.06 0 0 1 -3.32 2.141c-2.389 0-3.5065-1.055-3.7545-3.5993h10.7983c.031-.6206.031-.9618.031-1.4586zm-22.35-7.6955a4.8269 4.8269 0 0 0 -5.027 3.8478v-3.5376h-3.94v15.2049h3.94v-7.2611c0-3.1339 1.3659-4.6857 3.5687-4.6857 1.8926 0 2.948 1.0243 2.948 3.0722v8.8746h3.94v-9.0916c0-4.2821-1.8305-6.4235-5.43-6.4235zm-22.338 12.1017c-4.593 0-6.92-2.5443-6.92-7.478 0-4.9027 2.3273-7.4163 6.92-7.4163 4.6228 0 6.95 2.5136 6.95 7.4163 0 4.9337-2.3274 7.478-6.95 7.478zm0-18.6178a10.8779 10.8779 0 0 0 -11.1713 11.1708 11.1866 11.1866 0 0 0 22.3732 0 10.8852 10.8852 0 0 0 -11.2021-11.1708zm-23.9694 12.9707c.28-2.4516 1.3659-3.4755 3.5687-3.4755 2.2341 0 3.2891.9 3.3508 3.4755zm3.5376-6.4546c-4.499 0-7.6333 3.2271-7.6333 8.006 0 4.7164 3.1032 7.82 7.7571 7.82 3.4138 0 5.8032-1.3344 6.8272-3.9719l-3.4134-1.2413a3.06 3.06 0 0 1 -3.32 2.141c-2.3891 0-3.5062-1.055-3.755-3.5993h10.7987c.031-.6206.031-.9618.031-1.4586 0-4.6854-2.9475-7.6955-7.2921-7.6955zm-13.1565-4.2199h-3.9412v15.0182a4.4382 4.4382 0 0 0 4.6853 4.7168h3.2581v-3.4751h-4.0022v-8.2543h4.4063v-3.4755h-4.4063v-4.53zm-14.829 16.4769c-2.7928 0-4.1272-1.3962-4.1272-4.3131 0-2.9787 1.3344-4.3756 4.1272-4.3756 2.8858 0 4.22 1.3969 4.22 4.3756 0 2.9169-1.3341 4.3131-4.22 4.3131zm4.0957-8.5335a5.5648 5.5648 0 0 0 -5.4608-3.7235c-4.2511 0-6.7336 3.1654-6.7336 7.9439 0 4.7164 2.5753 7.8817 6.9195 7.8817a5.3843 5.3843 0 0 0 5.2749-3.6307v3.32h3.9409v-15.2047h-3.9409zm-19.5824-3.7235a5.4381 5.4381 0 0 0 -5.4613 3.91c-.6206-2.6068-2.3584-3.91-5.1511-3.91a4.8271 4.8271 0 0 0 -5.0269 3.8478v-3.5376h-3.9409v15.2049h3.9409v-7.2611c0-3.1339 1.3655-4.6857 3.5683-4.6857 1.893 0 2.9483 1.0243 2.9483 3.0722v8.8746h3.9405v-6.5783c0-3.7235 1.2413-5.3685 3.5686-5.3685 1.8927 0 2.948 1.1175 2.948 3.1653v8.7815h3.9405v-9.03c0-4.3131-1.7688-6.4852-5.2749-6.4852zm-26.6649 15.5151h3.9406v-15.2049h-3.9406zm-6.9835-19.735h-3.9409v15.0182a4.438 4.438 0 0 0 4.685 4.7168h3.2581v-3.4751h-4.0022v-8.2543h4.4058v-3.4755h-4.4058v-4.53zm-10.08 10.7051-3.1028-.465c-1.49-.2173-1.893-.7448-1.893-1.5828 0-1.024.7448-1.5825 2.2342-1.5825 1.924 0 2.6685.4658 2.8858 2.3894l3.4755-.8376c-.4968-2.7-2.3587-4.4067-6.4855-4.4067-3.8167 0-6.0819 1.7071-6.0819 4.6237 0 2.6064 1.6449 4.1268 4.3135 4.5611l2.5443.4037c1.8.2794 2.2341.7444 2.2341 1.6756 0 1.0239-.9618 1.5514-2.4822 1.5514-1.924 0-2.979-.5275-3.2274-2.5132l-3.6925 1.0239c.4033 2.4822 2.7617 4.4994 6.6711 4.4994 4.19 0 6.6716-1.8619 6.6716-4.9962 0-2.4822-1.5515-4.0026-4.0648-4.3442zm-25.0732 9.03h13.9641v-3.755h-9.8982v-5.375h9.34v-3.6419h-9.34v-5.1943h9.8982v-3.7547h-13.9637v21.7212z"/><path d="m9.2591 13.711h21.7v-3.751h-21.7zm-6.0268 9.0751h21.7v-3.7515h-21.7zm12.0534-21.721v3.7514h21.7v-3.7514z"/></g></svg>
